<mxfile host="app.diagrams.net" modified="2024-04-12T01:39:03.625Z" agent="Mozilla/5.0 (X11; Linux x86_64) AppleWebKit/537.36 (KHTML, like Gecko) Chrome/123.0.0.0 Safari/537.36" etag="P3RMGgmgaQBTgQ0WBGE-" version="24.2.1" type="github">
  <diagram name="페이지-1" id="th0XQkB2l59hhsC8lqRe">
    <mxGraphModel dx="1434" dy="1973" grid="1" gridSize="10" guides="1" tooltips="1" connect="1" arrows="1" fold="1" page="1" pageScale="1" pageWidth="827" pageHeight="1169" math="0" shadow="0">
      <root>
        <mxCell id="0" />
        <mxCell id="1" parent="0" />
        <mxCell id="sQb8ffSm1RUAsvBsyorU-19" value="" style="rounded=0;whiteSpace=wrap;html=1;fillColor=#d5e8d4;strokeColor=#82b366;" parent="1" vertex="1">
          <mxGeometry x="150" y="320" width="460" height="410" as="geometry" />
        </mxCell>
        <mxCell id="sQb8ffSm1RUAsvBsyorU-21" value="" style="rounded=0;whiteSpace=wrap;html=1;fillColor=#dae8fc;strokeColor=#6c8ebf;" parent="1" vertex="1">
          <mxGeometry x="150" y="-160" width="1310" height="480" as="geometry" />
        </mxCell>
        <mxCell id="FEBRZ15039Et_LptC9LV-10" value="" style="rounded=0;whiteSpace=wrap;html=1;fillColor=#fad7ac;strokeColor=#b46504;" vertex="1" parent="1">
          <mxGeometry x="910" y="-160" width="550" height="180" as="geometry" />
        </mxCell>
        <mxCell id="sQb8ffSm1RUAsvBsyorU-20" value="" style="rounded=0;whiteSpace=wrap;html=1;fillColor=#dae8fc;strokeColor=#6c8ebf;" parent="1" vertex="1">
          <mxGeometry x="610" y="320" width="850" height="410" as="geometry" />
        </mxCell>
        <mxCell id="cO3AsxR2FoYZL1ss0mDV-1" value="Modbus Server" style="rounded=0;whiteSpace=wrap;html=1;" parent="1" vertex="1">
          <mxGeometry x="190" y="400" width="110" height="70" as="geometry" />
        </mxCell>
        <mxCell id="zTuHYD-jZTooekpgXttU-7" value="MQTT Pub" style="text;html=1;align=center;verticalAlign=middle;whiteSpace=wrap;rounded=0;" parent="1" vertex="1">
          <mxGeometry x="570" y="510" width="80" height="30" as="geometry" />
        </mxCell>
        <mxCell id="IO1WaZzKGrbauop8XFUP-30" style="edgeStyle=orthogonalEdgeStyle;rounded=0;orthogonalLoop=1;jettySize=auto;html=1;entryX=0;entryY=0.5;entryDx=0;entryDy=0;" parent="1" source="sQb8ffSm1RUAsvBsyorU-18" target="B-YvBcfvIbjFVjhxtEdK-5" edge="1">
          <mxGeometry relative="1" as="geometry" />
        </mxCell>
        <mxCell id="sQb8ffSm1RUAsvBsyorU-18" value="Client" style="shape=umlActor;verticalLabelPosition=bottom;verticalAlign=top;html=1;outlineConnect=0;" parent="1" vertex="1">
          <mxGeometry x="60" y="90" width="30" height="60" as="geometry" />
        </mxCell>
        <mxCell id="cO3AsxR2FoYZL1ss0mDV-2" value="Modbus Server" style="rounded=0;whiteSpace=wrap;html=1;" parent="1" vertex="1">
          <mxGeometry x="190" y="610" width="110" height="70" as="geometry" />
        </mxCell>
        <mxCell id="sQb8ffSm1RUAsvBsyorU-2" value="MQTT&lt;div&gt;Broker&lt;/div&gt;" style="rounded=0;whiteSpace=wrap;html=1;" parent="1" vertex="1">
          <mxGeometry x="680" y="500" width="120" height="70" as="geometry" />
        </mxCell>
        <mxCell id="cO3AsxR2FoYZL1ss0mDV-3" value="Office" style="text;html=1;align=center;verticalAlign=middle;whiteSpace=wrap;rounded=0;" parent="1" vertex="1">
          <mxGeometry x="215" y="370" width="60" height="30" as="geometry" />
        </mxCell>
        <mxCell id="sQb8ffSm1RUAsvBsyorU-4" style="edgeStyle=orthogonalEdgeStyle;rounded=0;orthogonalLoop=1;jettySize=auto;html=1;exitX=0;exitY=0.5;exitDx=0;exitDy=0;" parent="1" source="sQb8ffSm1RUAsvBsyorU-3" target="sQb8ffSm1RUAsvBsyorU-2" edge="1">
          <mxGeometry relative="1" as="geometry" />
        </mxCell>
        <mxCell id="cO3AsxR2FoYZL1ss0mDV-4" value="192.168.70.220:502" style="text;html=1;align=center;verticalAlign=middle;whiteSpace=wrap;rounded=0;" parent="1" vertex="1">
          <mxGeometry x="215" y="470" width="60" height="30" as="geometry" />
        </mxCell>
        <mxCell id="sQb8ffSm1RUAsvBsyorU-3" value="Telegraf" style="rounded=0;whiteSpace=wrap;html=1;fillColor=#fad9d5;strokeColor=#ae4132;" parent="1" vertex="1">
          <mxGeometry x="890" y="498.75" width="120" height="72.5" as="geometry" />
        </mxCell>
        <mxCell id="cO3AsxR2FoYZL1ss0mDV-5" value="192.168.70.221:502" style="text;html=1;align=center;verticalAlign=middle;whiteSpace=wrap;rounded=0;" parent="1" vertex="1">
          <mxGeometry x="215" y="680" width="60" height="30" as="geometry" />
        </mxCell>
        <mxCell id="sQb8ffSm1RUAsvBsyorU-5" value="MQTT Sub" style="text;html=1;align=center;verticalAlign=middle;whiteSpace=wrap;rounded=0;" parent="1" vertex="1">
          <mxGeometry x="810" y="510" width="80" height="30" as="geometry" />
        </mxCell>
        <mxCell id="cO3AsxR2FoYZL1ss0mDV-6" value="Class A" style="text;html=1;align=center;verticalAlign=middle;whiteSpace=wrap;rounded=0;" parent="1" vertex="1">
          <mxGeometry x="215" y="580" width="60" height="30" as="geometry" />
        </mxCell>
        <mxCell id="sQb8ffSm1RUAsvBsyorU-8" value="InfluxDB" style="shape=cylinder3;whiteSpace=wrap;html=1;boundedLbl=1;backgroundOutline=1;size=15;" parent="1" vertex="1">
          <mxGeometry x="1105" y="495" width="90" height="80" as="geometry" />
        </mxCell>
        <mxCell id="zTuHYD-jZTooekpgXttU-1" style="edgeStyle=orthogonalEdgeStyle;rounded=0;orthogonalLoop=1;jettySize=auto;html=1;exitX=0;exitY=0.5;exitDx=0;exitDy=0;entryX=1;entryY=0.5;entryDx=0;entryDy=0;" parent="1" source="cO3AsxR2FoYZL1ss0mDV-7" target="cO3AsxR2FoYZL1ss0mDV-1" edge="1">
          <mxGeometry relative="1" as="geometry" />
        </mxCell>
        <mxCell id="zTuHYD-jZTooekpgXttU-2" style="edgeStyle=orthogonalEdgeStyle;rounded=0;orthogonalLoop=1;jettySize=auto;html=1;entryX=1;entryY=0.5;entryDx=0;entryDy=0;" parent="1" source="cO3AsxR2FoYZL1ss0mDV-7" target="cO3AsxR2FoYZL1ss0mDV-2" edge="1">
          <mxGeometry relative="1" as="geometry" />
        </mxCell>
        <mxCell id="zTuHYD-jZTooekpgXttU-6" style="edgeStyle=orthogonalEdgeStyle;rounded=0;orthogonalLoop=1;jettySize=auto;html=1;exitX=1;exitY=0.5;exitDx=0;exitDy=0;entryX=0;entryY=0.5;entryDx=0;entryDy=0;" parent="1" source="cO3AsxR2FoYZL1ss0mDV-7" target="sQb8ffSm1RUAsvBsyorU-2" edge="1">
          <mxGeometry relative="1" as="geometry" />
        </mxCell>
        <mxCell id="cO3AsxR2FoYZL1ss0mDV-7" value="Gateway&lt;div&gt;(Node-RED)&lt;/div&gt;" style="rounded=0;whiteSpace=wrap;html=1;" parent="1" vertex="1">
          <mxGeometry x="434" y="500" width="116" height="70" as="geometry" />
        </mxCell>
        <mxCell id="sQb8ffSm1RUAsvBsyorU-10" style="edgeStyle=orthogonalEdgeStyle;rounded=0;orthogonalLoop=1;jettySize=auto;html=1;exitX=1;exitY=0.5;exitDx=0;exitDy=0;entryX=0;entryY=0.5;entryDx=0;entryDy=0;entryPerimeter=0;" parent="1" source="sQb8ffSm1RUAsvBsyorU-3" target="sQb8ffSm1RUAsvBsyorU-8" edge="1">
          <mxGeometry relative="1" as="geometry" />
        </mxCell>
        <mxCell id="cO3AsxR2FoYZL1ss0mDV-8" value="192.168.70.25:1880" style="text;html=1;align=center;verticalAlign=middle;whiteSpace=wrap;rounded=0;" parent="1" vertex="1">
          <mxGeometry x="462" y="570" width="60" height="30" as="geometry" />
        </mxCell>
        <mxCell id="sQb8ffSm1RUAsvBsyorU-11" value="Query" style="text;html=1;align=center;verticalAlign=middle;whiteSpace=wrap;rounded=0;" parent="1" vertex="1">
          <mxGeometry x="1030" y="510" width="60" height="30" as="geometry" />
        </mxCell>
        <mxCell id="IO1WaZzKGrbauop8XFUP-15" style="edgeStyle=orthogonalEdgeStyle;rounded=0;orthogonalLoop=1;jettySize=auto;html=1;entryX=0;entryY=0.25;entryDx=0;entryDy=0;dashed=1;strokeColor=#FF3333;startArrow=block;startFill=1;endArrow=block;endFill=1;" parent="1" source="B-YvBcfvIbjFVjhxtEdK-1" target="zTuHYD-jZTooekpgXttU-12" edge="1">
          <mxGeometry relative="1" as="geometry">
            <Array as="points">
              <mxPoint x="810" y="-80" />
              <mxPoint x="810" y="105" />
            </Array>
          </mxGeometry>
        </mxCell>
        <mxCell id="B-YvBcfvIbjFVjhxtEdK-1" value="Discovery-service" style="rounded=0;whiteSpace=wrap;html=1;" parent="1" vertex="1">
          <mxGeometry x="630" y="-110" width="120" height="60" as="geometry" />
        </mxCell>
        <mxCell id="zTuHYD-jZTooekpgXttU-4" value="Modbus/TCP" style="text;html=1;align=center;verticalAlign=middle;whiteSpace=wrap;rounded=0;" parent="1" vertex="1">
          <mxGeometry x="300" y="520" width="60" height="30" as="geometry" />
        </mxCell>
        <mxCell id="IO1WaZzKGrbauop8XFUP-12" style="edgeStyle=orthogonalEdgeStyle;rounded=0;orthogonalLoop=1;jettySize=auto;html=1;entryX=0;entryY=0.5;entryDx=0;entryDy=0;" parent="1" source="B-YvBcfvIbjFVjhxtEdK-2" target="zTuHYD-jZTooekpgXttU-12" edge="1">
          <mxGeometry relative="1" as="geometry" />
        </mxCell>
        <mxCell id="IO1WaZzKGrbauop8XFUP-14" style="edgeStyle=orthogonalEdgeStyle;rounded=0;orthogonalLoop=1;jettySize=auto;html=1;entryX=0;entryY=0.5;entryDx=0;entryDy=0;" parent="1" source="B-YvBcfvIbjFVjhxtEdK-2" target="zTuHYD-jZTooekpgXttU-11" edge="1">
          <mxGeometry relative="1" as="geometry">
            <Array as="points">
              <mxPoint x="830" y="120" />
              <mxPoint x="830" y="250" />
            </Array>
          </mxGeometry>
        </mxCell>
        <mxCell id="FEBRZ15039Et_LptC9LV-8" style="edgeStyle=orthogonalEdgeStyle;rounded=0;orthogonalLoop=1;jettySize=auto;html=1;exitX=1;exitY=0.5;exitDx=0;exitDy=0;entryX=0;entryY=0.5;entryDx=0;entryDy=0;" edge="1" parent="1" source="B-YvBcfvIbjFVjhxtEdK-2" target="IO1WaZzKGrbauop8XFUP-34">
          <mxGeometry relative="1" as="geometry">
            <Array as="points">
              <mxPoint x="830" y="120" />
              <mxPoint x="830" y="-60" />
            </Array>
          </mxGeometry>
        </mxCell>
        <mxCell id="B-YvBcfvIbjFVjhxtEdK-2" value="Gateway Service" style="rounded=0;whiteSpace=wrap;html=1;" parent="1" vertex="1">
          <mxGeometry x="630" y="90" width="120" height="60" as="geometry" />
        </mxCell>
        <mxCell id="sQb8ffSm1RUAsvBsyorU-12" value="133.186.153.19:1883" style="text;html=1;align=center;verticalAlign=middle;whiteSpace=wrap;rounded=0;" parent="1" vertex="1">
          <mxGeometry x="675" y="575" width="130" height="30" as="geometry" />
        </mxCell>
        <mxCell id="sQb8ffSm1RUAsvBsyorU-13" value="133.186.223.14:3000" style="text;html=1;align=center;verticalAlign=middle;whiteSpace=wrap;rounded=0;" parent="1" vertex="1">
          <mxGeometry x="885" y="575" width="130" height="30" as="geometry" />
        </mxCell>
        <mxCell id="zTuHYD-jZTooekpgXttU-8" value="Rasberry PI" style="text;html=1;align=center;verticalAlign=middle;whiteSpace=wrap;rounded=0;" parent="1" vertex="1">
          <mxGeometry x="454" y="470" width="76" height="30" as="geometry" />
        </mxCell>
        <mxCell id="sQb8ffSm1RUAsvBsyorU-14" value="Instance" style="text;html=1;align=center;verticalAlign=middle;whiteSpace=wrap;rounded=0;" parent="1" vertex="1">
          <mxGeometry x="710" y="460" width="60" height="30" as="geometry" />
        </mxCell>
        <mxCell id="IO1WaZzKGrbauop8XFUP-3" style="edgeStyle=orthogonalEdgeStyle;rounded=0;orthogonalLoop=1;jettySize=auto;html=1;entryX=0;entryY=0.5;entryDx=0;entryDy=0;" parent="1" source="B-YvBcfvIbjFVjhxtEdK-5" target="B-YvBcfvIbjFVjhxtEdK-7" edge="1">
          <mxGeometry relative="1" as="geometry" />
        </mxCell>
        <mxCell id="IO1WaZzKGrbauop8XFUP-4" style="edgeStyle=orthogonalEdgeStyle;rounded=0;orthogonalLoop=1;jettySize=auto;html=1;entryX=0;entryY=0.5;entryDx=0;entryDy=0;" parent="1" source="B-YvBcfvIbjFVjhxtEdK-5" target="IO1WaZzKGrbauop8XFUP-2" edge="1">
          <mxGeometry relative="1" as="geometry" />
        </mxCell>
        <mxCell id="B-YvBcfvIbjFVjhxtEdK-5" value="L4-switch" style="rounded=0;whiteSpace=wrap;html=1;fillColor=#b0e3e6;strokeColor=#0e8088;" parent="1" vertex="1">
          <mxGeometry x="190" y="90" width="120" height="60" as="geometry" />
        </mxCell>
        <mxCell id="zTuHYD-jZTooekpgXttU-10" value="MYSQL" style="shape=cylinder3;whiteSpace=wrap;html=1;boundedLbl=1;backgroundOutline=1;size=15;" parent="1" vertex="1">
          <mxGeometry x="1141" y="210" width="100" height="80" as="geometry" />
        </mxCell>
        <mxCell id="IO1WaZzKGrbauop8XFUP-10" style="edgeStyle=orthogonalEdgeStyle;rounded=0;orthogonalLoop=1;jettySize=auto;html=1;entryX=0;entryY=0.5;entryDx=0;entryDy=0;" parent="1" source="B-YvBcfvIbjFVjhxtEdK-7" target="B-YvBcfvIbjFVjhxtEdK-2" edge="1">
          <mxGeometry relative="1" as="geometry" />
        </mxCell>
        <mxCell id="B-YvBcfvIbjFVjhxtEdK-7" value="Front Service" style="rounded=0;whiteSpace=wrap;html=1;fillColor=#b0e3e6;strokeColor=#0e8088;" parent="1" vertex="1">
          <mxGeometry x="414" y="-30" width="120" height="60" as="geometry" />
        </mxCell>
        <mxCell id="sQb8ffSm1RUAsvBsyorU-15" value="Database" style="text;html=1;align=center;verticalAlign=middle;whiteSpace=wrap;rounded=0;" parent="1" vertex="1">
          <mxGeometry x="1120" y="460" width="60" height="30" as="geometry" />
        </mxCell>
        <mxCell id="B-YvBcfvIbjFVjhxtEdK-9" value="Nhncloud&lt;div&gt;Load Balancer&lt;/div&gt;" style="text;html=1;align=center;verticalAlign=middle;whiteSpace=wrap;rounded=0;" parent="1" vertex="1">
          <mxGeometry x="205" y="60" width="90" height="30" as="geometry" />
        </mxCell>
        <mxCell id="sQb8ffSm1RUAsvBsyorU-16" value="Instance" style="text;html=1;align=center;verticalAlign=middle;whiteSpace=wrap;rounded=0;" parent="1" vertex="1">
          <mxGeometry x="920" y="460" width="60" height="30" as="geometry" />
        </mxCell>
        <mxCell id="sQb8ffSm1RUAsvBsyorU-17" value="133.186.244.96:8086" style="text;html=1;align=center;verticalAlign=middle;whiteSpace=wrap;rounded=0;" parent="1" vertex="1">
          <mxGeometry x="1085" y="575" width="130" height="30" as="geometry" />
        </mxCell>
        <mxCell id="zTuHYD-jZTooekpgXttU-11" value="API Service" style="rounded=0;whiteSpace=wrap;html=1;fillColor=#b0e3e6;strokeColor=#0e8088;" parent="1" vertex="1">
          <mxGeometry x="890" y="220" width="120" height="60" as="geometry" />
        </mxCell>
        <mxCell id="zTuHYD-jZTooekpgXttU-12" value="Auth Service" style="rounded=0;whiteSpace=wrap;html=1;" parent="1" vertex="1">
          <mxGeometry x="890" y="90" width="120" height="60" as="geometry" />
        </mxCell>
        <mxCell id="zTuHYD-jZTooekpgXttU-15" style="edgeStyle=orthogonalEdgeStyle;rounded=0;orthogonalLoop=1;jettySize=auto;html=1;exitX=1;exitY=0.5;exitDx=0;exitDy=0;entryX=0;entryY=0.5;entryDx=0;entryDy=0;entryPerimeter=0;" parent="1" source="zTuHYD-jZTooekpgXttU-11" target="zTuHYD-jZTooekpgXttU-10" edge="1">
          <mxGeometry relative="1" as="geometry" />
        </mxCell>
        <mxCell id="zTuHYD-jZTooekpgXttU-18" value="Instance" style="text;html=1;align=center;verticalAlign=middle;whiteSpace=wrap;rounded=0;" parent="1" vertex="1">
          <mxGeometry x="920" y="60" width="60" height="30" as="geometry" />
        </mxCell>
        <mxCell id="zTuHYD-jZTooekpgXttU-19" value="Instance" style="text;html=1;align=center;verticalAlign=middle;whiteSpace=wrap;rounded=0;" parent="1" vertex="1">
          <mxGeometry x="920" y="190" width="60" height="30" as="geometry" />
        </mxCell>
        <mxCell id="IO1WaZzKGrbauop8XFUP-1" value="133.186.247.111:80&lt;div&gt;www.ioteatime.live&lt;/div&gt;" style="text;html=1;align=center;verticalAlign=middle;whiteSpace=wrap;rounded=0;" parent="1" vertex="1">
          <mxGeometry x="220" y="150" width="60" height="30" as="geometry" />
        </mxCell>
        <mxCell id="IO1WaZzKGrbauop8XFUP-11" style="edgeStyle=orthogonalEdgeStyle;rounded=0;orthogonalLoop=1;jettySize=auto;html=1;entryX=0;entryY=0.5;entryDx=0;entryDy=0;" parent="1" source="IO1WaZzKGrbauop8XFUP-2" target="B-YvBcfvIbjFVjhxtEdK-2" edge="1">
          <mxGeometry relative="1" as="geometry" />
        </mxCell>
        <mxCell id="IO1WaZzKGrbauop8XFUP-2" value="Front Service" style="rounded=0;whiteSpace=wrap;html=1;fillColor=#b0e3e6;strokeColor=#0e8088;" parent="1" vertex="1">
          <mxGeometry x="414" y="210" width="120" height="60" as="geometry" />
        </mxCell>
        <mxCell id="IO1WaZzKGrbauop8XFUP-5" value="133.186.246.222:8080" style="text;html=1;align=center;verticalAlign=middle;whiteSpace=wrap;rounded=0;" parent="1" vertex="1">
          <mxGeometry x="444" y="30" width="60" height="30" as="geometry" />
        </mxCell>
        <mxCell id="IO1WaZzKGrbauop8XFUP-6" value="133.186.246.222:8080" style="text;html=1;align=center;verticalAlign=middle;whiteSpace=wrap;rounded=0;" parent="1" vertex="1">
          <mxGeometry x="444" y="270" width="60" height="30" as="geometry" />
        </mxCell>
        <mxCell id="IO1WaZzKGrbauop8XFUP-7" value="Instance" style="text;html=1;align=center;verticalAlign=middle;whiteSpace=wrap;rounded=0;" parent="1" vertex="1">
          <mxGeometry x="444" y="-60" width="60" height="30" as="geometry" />
        </mxCell>
        <mxCell id="IO1WaZzKGrbauop8XFUP-8" value="Instance" style="text;html=1;align=center;verticalAlign=middle;whiteSpace=wrap;rounded=0;" parent="1" vertex="1">
          <mxGeometry x="444" y="180" width="60" height="30" as="geometry" />
        </mxCell>
        <mxCell id="IO1WaZzKGrbauop8XFUP-9" value="Instance" style="text;html=1;align=center;verticalAlign=middle;whiteSpace=wrap;rounded=0;" parent="1" vertex="1">
          <mxGeometry x="660" y="60" width="60" height="30" as="geometry" />
        </mxCell>
        <mxCell id="IO1WaZzKGrbauop8XFUP-17" value="" style="endArrow=block;html=1;rounded=0;entryX=1;entryY=0.25;entryDx=0;entryDy=0;exitX=0;exitY=0.25;exitDx=0;exitDy=0;edgeStyle=orthogonalEdgeStyle;strokeColor=#FF3333;dashed=1;startArrow=block;startFill=1;endFill=1;" parent="1" source="zTuHYD-jZTooekpgXttU-11" target="B-YvBcfvIbjFVjhxtEdK-2" edge="1">
          <mxGeometry width="50" height="50" relative="1" as="geometry">
            <mxPoint x="760" y="130" as="sourcePoint" />
            <mxPoint x="810" y="80" as="targetPoint" />
            <Array as="points">
              <mxPoint x="890" y="240" />
              <mxPoint x="810" y="240" />
              <mxPoint x="810" y="105" />
            </Array>
          </mxGeometry>
        </mxCell>
        <mxCell id="IO1WaZzKGrbauop8XFUP-18" value="Instance" style="text;html=1;align=center;verticalAlign=middle;whiteSpace=wrap;rounded=0;" parent="1" vertex="1">
          <mxGeometry x="665" y="-140" width="60" height="30" as="geometry" />
        </mxCell>
        <mxCell id="IO1WaZzKGrbauop8XFUP-21" value="" style="endArrow=none;html=1;rounded=0;dashed=1;strokeColor=#FF3333;endFill=0;" parent="1" edge="1">
          <mxGeometry width="50" height="50" relative="1" as="geometry">
            <mxPoint x="810" y="110" as="sourcePoint" />
            <mxPoint x="810" as="targetPoint" />
          </mxGeometry>
        </mxCell>
        <mxCell id="IO1WaZzKGrbauop8XFUP-22" value="133.186.134.189:8761" style="text;html=1;align=center;verticalAlign=middle;whiteSpace=wrap;rounded=0;" parent="1" vertex="1">
          <mxGeometry x="660" y="-50" width="60" height="30" as="geometry" />
        </mxCell>
        <mxCell id="IO1WaZzKGrbauop8XFUP-23" value="133.186.150.177:8080" style="text;html=1;align=center;verticalAlign=middle;whiteSpace=wrap;rounded=0;" parent="1" vertex="1">
          <mxGeometry x="660" y="150" width="60" height="30" as="geometry" />
        </mxCell>
        <mxCell id="IO1WaZzKGrbauop8XFUP-24" value="133.186.215.150:8080" style="text;html=1;align=center;verticalAlign=middle;whiteSpace=wrap;rounded=0;" parent="1" vertex="1">
          <mxGeometry x="920" y="150" width="60" height="30" as="geometry" />
        </mxCell>
        <mxCell id="IO1WaZzKGrbauop8XFUP-25" value="133.186.246.95:8080" style="text;html=1;align=center;verticalAlign=middle;whiteSpace=wrap;rounded=0;" parent="1" vertex="1">
          <mxGeometry x="920" y="280" width="60" height="30" as="geometry" />
        </mxCell>
        <mxCell id="IO1WaZzKGrbauop8XFUP-26" value="133.186.244.96:3306" style="text;html=1;align=center;verticalAlign=middle;whiteSpace=wrap;rounded=0;" parent="1" vertex="1">
          <mxGeometry x="1170" y="290" width="60" height="30" as="geometry" />
        </mxCell>
        <mxCell id="IO1WaZzKGrbauop8XFUP-27" value="Database" style="text;html=1;align=center;verticalAlign=middle;whiteSpace=wrap;rounded=0;" parent="1" vertex="1">
          <mxGeometry x="1161" y="190" width="60" height="30" as="geometry" />
        </mxCell>
        <mxCell id="IO1WaZzKGrbauop8XFUP-32" style="edgeStyle=orthogonalEdgeStyle;rounded=0;orthogonalLoop=1;jettySize=auto;html=1;entryX=0.5;entryY=0;entryDx=0;entryDy=0;exitX=0.5;exitY=1;exitDx=0;exitDy=0;" parent="1" source="IO1WaZzKGrbauop8XFUP-25" target="sQb8ffSm1RUAsvBsyorU-15" edge="1">
          <mxGeometry relative="1" as="geometry">
            <Array as="points">
              <mxPoint x="950" y="370" />
              <mxPoint x="1150" y="370" />
            </Array>
          </mxGeometry>
        </mxCell>
        <mxCell id="Lj4KsmWku5cwDc4wjHBv-9" style="edgeStyle=orthogonalEdgeStyle;rounded=0;orthogonalLoop=1;jettySize=auto;html=1;" parent="1" source="IO1WaZzKGrbauop8XFUP-34" target="IO1WaZzKGrbauop8XFUP-45" edge="1">
          <mxGeometry relative="1" as="geometry">
            <Array as="points">
              <mxPoint x="1065" y="-60" />
              <mxPoint x="1065" y="-61" />
            </Array>
          </mxGeometry>
        </mxCell>
        <mxCell id="FEBRZ15039Et_LptC9LV-5" style="edgeStyle=orthogonalEdgeStyle;rounded=0;orthogonalLoop=1;jettySize=auto;html=1;exitX=1;exitY=0.75;exitDx=0;exitDy=0;entryX=0;entryY=0;entryDx=0;entryDy=27.5;entryPerimeter=0;" edge="1" parent="1" source="IO1WaZzKGrbauop8XFUP-34" target="zTuHYD-jZTooekpgXttU-10">
          <mxGeometry relative="1" as="geometry" />
        </mxCell>
        <mxCell id="IO1WaZzKGrbauop8XFUP-34" value="AI 모델(서비스)" style="rounded=0;whiteSpace=wrap;html=1;fillColor=#b1ddf0;strokeColor=#10739e;" parent="1" vertex="1">
          <mxGeometry x="950" y="-90" width="120" height="60" as="geometry" />
        </mxCell>
        <mxCell id="IO1WaZzKGrbauop8XFUP-38" value="ai 모델 학습 서버" style="rounded=0;whiteSpace=wrap;html=1;fillColor=#b1ddf0;strokeColor=#10739e;" parent="1" vertex="1">
          <mxGeometry x="1310" y="-92.5" width="120" height="62.5" as="geometry" />
        </mxCell>
        <mxCell id="IO1WaZzKGrbauop8XFUP-43" value="NHN Academy Network" style="text;html=1;align=center;verticalAlign=middle;whiteSpace=wrap;rounded=0;" parent="1" vertex="1">
          <mxGeometry x="150" y="320" width="140" height="30" as="geometry" />
        </mxCell>
        <mxCell id="IO1WaZzKGrbauop8XFUP-45" value="File System" style="shape=cylinder3;whiteSpace=wrap;html=1;boundedLbl=1;backgroundOutline=1;size=15;fillColor=#b1ddf0;strokeColor=#10739e;" parent="1" vertex="1">
          <mxGeometry x="1161" y="-101.25" width="60" height="80" as="geometry" />
        </mxCell>
        <mxCell id="Lj4KsmWku5cwDc4wjHBv-11" value="Instance" style="text;html=1;align=center;verticalAlign=middle;whiteSpace=wrap;rounded=0;" parent="1" vertex="1">
          <mxGeometry x="980" y="-120" width="60" height="30" as="geometry" />
        </mxCell>
        <mxCell id="FEBRZ15039Et_LptC9LV-2" style="edgeStyle=orthogonalEdgeStyle;rounded=0;orthogonalLoop=1;jettySize=auto;html=1;exitX=0.75;exitY=1;exitDx=0;exitDy=0;entryX=1;entryY=0.5;entryDx=0;entryDy=0;entryPerimeter=0;" edge="1" parent="1" source="IO1WaZzKGrbauop8XFUP-38" target="sQb8ffSm1RUAsvBsyorU-8">
          <mxGeometry relative="1" as="geometry" />
        </mxCell>
        <mxCell id="FEBRZ15039Et_LptC9LV-6" style="edgeStyle=orthogonalEdgeStyle;rounded=0;orthogonalLoop=1;jettySize=auto;html=1;entryX=1;entryY=0.5;entryDx=0;entryDy=0;entryPerimeter=0;" edge="1" parent="1" source="IO1WaZzKGrbauop8XFUP-38" target="IO1WaZzKGrbauop8XFUP-45">
          <mxGeometry relative="1" as="geometry">
            <Array as="points" />
          </mxGeometry>
        </mxCell>
        <mxCell id="FEBRZ15039Et_LptC9LV-7" style="edgeStyle=orthogonalEdgeStyle;rounded=0;orthogonalLoop=1;jettySize=auto;html=1;exitX=0;exitY=0.75;exitDx=0;exitDy=0;entryX=1;entryY=0.5;entryDx=0;entryDy=0;entryPerimeter=0;" edge="1" parent="1" source="IO1WaZzKGrbauop8XFUP-38" target="zTuHYD-jZTooekpgXttU-10">
          <mxGeometry relative="1" as="geometry" />
        </mxCell>
      </root>
    </mxGraphModel>
  </diagram>
</mxfile>
